<svg xmlns="http://www.w3.org/2000/svg" viewBox="0 0 566.93 566.93">
  <title>Artboard 1</title>
  <g id="Layer_1" data-name="Layer 1">
    <rect width="566.93" height="566.93" rx="25" ry="25" style="fill: #0d47a1;stroke: #003459;stroke-miterlimit: 10"/>
  </g>
  <g id="Layer_2" data-name="Layer 2">
    <path d="M445.39,499.53c-44-11.6-87-24.65-124.68-37.69C314,459.42,307.18,457,300.9,457c-77.31-2.9-143.52-59.92-143.52-164.78,0-104.37,63.79-171.54,151.74-171.54,88.43,0,145.93,68.61,145.93,164.78,0,83.6-38.66,137.23-92.78,156.08v1.93c32.38,8.22,67.65,15.95,95.2,20.78ZM410.6,287.39c0-65.24-33.83-132.4-102.93-132.4-71,0-105.83,65.71-105.35,136.27-.48,69.1,37.7,131.43,103.41,131.43C372.9,422.69,410.6,361.81,410.6,287.39Z" style="fill: #000d2f"/>
    <path d="M433.15,478.29c-44-11.6-87-24.65-124.67-37.7-6.77-2.41-13.53-4.83-19.82-4.83-77.31-2.9-143.52-59.92-143.52-164.78,0-104.38,63.79-171.55,151.74-171.55,88.43,0,145.93,68.62,145.93,164.79,0,83.59-38.65,137.23-92.78,156.08v1.93c32.38,8.22,67.66,15.95,95.2,20.78ZM398.36,266.15c0-65.24-33.83-132.41-102.93-132.41-71,0-105.83,65.72-105.35,136.27-.48,69.11,37.7,131.44,103.42,131.44C360.67,401.45,398.36,340.57,398.36,266.15Z" style="fill: #fff"/>
  </g>
</svg>
