<svg id="Layer_1" data-name="Layer 1" xmlns="http://www.w3.org/2000/svg" viewBox="0 0 567.93 567.93"><defs><style>.cls-1{fill:#003459;stroke:#003459;stroke-miterlimit:10;}.cls-2{fill:#000d2f;}.cls-3{fill:#fff;}</style></defs><title>Untitled-1</title><rect class="cls-1" x="0.5" y="0.5" width="566.93" height="566.93" rx="100.99" ry="100.99"/><path class="cls-2" d="M416.27,446.61c-35.19-9.29-69.61-19.73-99.78-30.17-5.41-1.93-10.82-3.87-15.85-3.87-61.88-2.32-114.86-47.95-114.86-131.87,0-83.54,51.05-137.29,121.43-137.29C378,143.41,424,198.32,424,275.28c0,66.91-30.94,109.84-74.26,124.92v1.55c25.91,6.57,54.15,12.76,76.19,16.62ZM388.43,276.83c0-52.21-27.07-106-82.38-106-56.85,0-84.69,52.6-84.31,109.06-.38,55.31,30.17,105.2,82.76,105.2C358.26,385.12,388.43,336.39,388.43,276.83Z" transform="translate(0.5 0.5)"/><path class="cls-3" d="M393.27,429.61c-35.19-9.29-69.61-19.73-99.78-30.17-5.41-1.93-10.82-3.87-15.85-3.87-61.88-2.32-114.86-47.95-114.86-131.87,0-83.54,51.05-137.29,121.43-137.29C355,126.41,401,181.32,401,258.28c0,66.91-30.94,109.84-74.26,124.92v1.54c25.91,6.58,54.15,12.77,76.19,16.63ZM365.43,259.83c0-52.21-27.07-106-82.38-106-56.85,0-84.69,52.6-84.31,109.06-.38,55.31,30.17,105.2,82.77,105.2C335.26,368.12,365.43,319.39,365.43,259.83Z" transform="translate(0.5 0.5)"/></svg>